<svg xmlns="http://www.w3.org/2000/svg" viewBox="0 0 64 64" width="48px" height="48px"><linearGradient id="4vyDUYgjydN2OgeywhfFva" x1="32" x2="32" y1="4.75" y2="59.528" gradientUnits="userSpaceOnUse" spreadMethod="reflect"><stop offset="0" stop-color="#1a6dff"/><stop offset="1" stop-color="#c822ff"/></linearGradient><path fill="url(#4vyDUYgjydN2OgeywhfFva)" d="M49,6H15c-1.654,0-3,1.346-3,3v4v3v39c0,1.654,1.345,3,3,3h34c1.654,0,3-1.346,3-3V16v-3V9 C52,7.346,50.654,6,49,6z M15,8h34c0.552,0,1,0.448,1,1v1.184C50,10.072,49.352,10,49,10H15c-0.352,0-1,0.072-1,0.184V9 C14,8.448,14.448,8,15,8z M49,56h-7v-7c0-0.552,0.448-1,1-1h7v7C50,55.552,49.551,56,49,56z M50,46h-7c-1.654,0-3,1.346-3,3v7H15 c-0.552,0-1-0.448-1-1V16v-3c0-0.552,0.448-1,1-1h34c0.552,0,1,0.448,1,1v3V46z"/><linearGradient id="4vyDUYgjydN2OgeywhfFvb" x1="24.75" x2="24.75" y1="4.75" y2="59.528" gradientUnits="userSpaceOnUse" spreadMethod="reflect"><stop offset="0" stop-color="#1a6dff"/><stop offset="1" stop-color="#c822ff"/></linearGradient><path fill="url(#4vyDUYgjydN2OgeywhfFvb)" d="M23.001,23.587l-3.294-3.294l-1.414,1.414l3.294,3.294c0.389,0.39,0.9,0.584,1.412,0.584 s1.024-0.194,1.414-0.584l6.794-6.794l-1.414-1.414L23.001,23.587z"/><linearGradient id="4vyDUYgjydN2OgeywhfFvc" x1="40" x2="40" y1="4.75" y2="59.528" gradientUnits="userSpaceOnUse" spreadMethod="reflect"><stop offset="0" stop-color="#1a6dff"/><stop offset="1" stop-color="#c822ff"/></linearGradient><path fill="url(#4vyDUYgjydN2OgeywhfFvc)" d="M34 18H46V20H34z"/><linearGradient id="4vyDUYgjydN2OgeywhfFvd" x1="40" x2="40" y1="4.75" y2="59.528" gradientUnits="userSpaceOnUse" spreadMethod="reflect"><stop offset="0" stop-color="#1a6dff"/><stop offset="1" stop-color="#c822ff"/></linearGradient><path fill="url(#4vyDUYgjydN2OgeywhfFvd)" d="M34 22H46V24H34z"/><linearGradient id="4vyDUYgjydN2OgeywhfFve" x1="24.75" x2="24.75" y1="4.75" y2="59.528" gradientUnits="userSpaceOnUse" spreadMethod="reflect"><stop offset="0" stop-color="#1a6dff"/><stop offset="1" stop-color="#c822ff"/></linearGradient><path fill="url(#4vyDUYgjydN2OgeywhfFve)" d="M23.001,39.587l-3.294-3.294l-1.414,1.414l3.294,3.294c0.389,0.39,0.9,0.584,1.412,0.584 s1.024-0.194,1.414-0.584l6.794-6.794l-1.414-1.414L23.001,39.587z"/><linearGradient id="4vyDUYgjydN2OgeywhfFvf" x1="40" x2="40" y1="4.75" y2="59.528" gradientUnits="userSpaceOnUse" spreadMethod="reflect"><stop offset="0" stop-color="#1a6dff"/><stop offset="1" stop-color="#c822ff"/></linearGradient><path fill="url(#4vyDUYgjydN2OgeywhfFvf)" d="M34 34H46V36H34z"/><linearGradient id="4vyDUYgjydN2OgeywhfFvg" x1="40" x2="40" y1="4.75" y2="59.528" gradientUnits="userSpaceOnUse" spreadMethod="reflect"><stop offset="0" stop-color="#1a6dff"/><stop offset="1" stop-color="#c822ff"/></linearGradient><path fill="url(#4vyDUYgjydN2OgeywhfFvg)" d="M34 38H46V40H34z"/><linearGradient id="4vyDUYgjydN2OgeywhfFvh" x1="46" x2="46" y1="49.75" y2="54.684" gradientUnits="userSpaceOnUse" spreadMethod="reflect"><stop offset="0" stop-color="#6dc7ff"/><stop offset="1" stop-color="#e6abff"/></linearGradient><path fill="url(#4vyDUYgjydN2OgeywhfFvh)" d="M48,53c0,0.552-0.448,1-1,1h-2c-0.552,0-1-0.448-1-1v-2c0-0.552,0.448-1,1-1h2 c0.552,0,1,0.448,1,1V53z"/></svg>