<?xml version="1.0" encoding="UTF-8"?>
<svg xmlns="http://www.w3.org/2000/svg" xmlns:xlink="http://www.w3.org/1999/xlink" width="48pt" height="48pt" viewBox="0 0 48 48" version="1.1">
<defs>
<linearGradient id="linear0" gradientUnits="userSpaceOnUse" x1="86" y1="12.76563" x2="86" y2="159.9815" gradientTransform="matrix(0.27907,0,0,0.27907,0,0)">
<stop offset="0" style="stop-color:rgb(10.196078%,42.745098%,100%);stop-opacity:1;"/>
<stop offset="1" style="stop-color:rgb(78.431373%,13.333333%,100%);stop-opacity:1;"/>
</linearGradient>
<linearGradient id="linear1" gradientUnits="userSpaceOnUse" x1="66.51563" y1="12.76563" x2="66.51563" y2="159.9815" gradientTransform="matrix(0.27907,0,0,0.27907,0,0)">
<stop offset="0" style="stop-color:rgb(10.196078%,42.745098%,100%);stop-opacity:1;"/>
<stop offset="1" style="stop-color:rgb(78.431373%,13.333333%,100%);stop-opacity:1;"/>
</linearGradient>
<linearGradient id="linear2" gradientUnits="userSpaceOnUse" x1="107.5" y1="12.76563" x2="107.5" y2="159.9815" gradientTransform="matrix(0.27907,0,0,0.27907,0,0)">
<stop offset="0" style="stop-color:rgb(10.196078%,42.745098%,100%);stop-opacity:1;"/>
<stop offset="1" style="stop-color:rgb(78.431373%,13.333333%,100%);stop-opacity:1;"/>
</linearGradient>
<linearGradient id="linear3" gradientUnits="userSpaceOnUse" x1="107.5" y1="12.76563" x2="107.5" y2="159.9815" gradientTransform="matrix(0.27907,0,0,0.27907,0,0)">
<stop offset="0" style="stop-color:rgb(10.196078%,42.745098%,100%);stop-opacity:1;"/>
<stop offset="1" style="stop-color:rgb(78.431373%,13.333333%,100%);stop-opacity:1;"/>
</linearGradient>
<linearGradient id="linear4" gradientUnits="userSpaceOnUse" x1="66.51563" y1="12.76563" x2="66.51563" y2="159.9815" gradientTransform="matrix(0.27907,0,0,0.27907,0,0)">
<stop offset="0" style="stop-color:rgb(10.196078%,42.745098%,100%);stop-opacity:1;"/>
<stop offset="1" style="stop-color:rgb(78.431373%,13.333333%,100%);stop-opacity:1;"/>
</linearGradient>
<linearGradient id="linear5" gradientUnits="userSpaceOnUse" x1="107.5" y1="12.76563" x2="107.5" y2="159.9815" gradientTransform="matrix(0.27907,0,0,0.27907,0,0)">
<stop offset="0" style="stop-color:rgb(10.196078%,42.745098%,100%);stop-opacity:1;"/>
<stop offset="1" style="stop-color:rgb(78.431373%,13.333333%,100%);stop-opacity:1;"/>
</linearGradient>
<linearGradient id="linear6" gradientUnits="userSpaceOnUse" x1="107.5" y1="12.76563" x2="107.5" y2="159.9815" gradientTransform="matrix(0.27907,0,0,0.27907,0,0)">
<stop offset="0" style="stop-color:rgb(10.196078%,42.745098%,100%);stop-opacity:1;"/>
<stop offset="1" style="stop-color:rgb(78.431373%,13.333333%,100%);stop-opacity:1;"/>
</linearGradient>
<linearGradient id="linear7" gradientUnits="userSpaceOnUse" x1="123.625" y1="133.70313" x2="123.625" y2="146.96325" gradientTransform="matrix(0.27907,0,0,0.27907,0,0)">
<stop offset="0" style="stop-color:rgb(42.745098%,78.039216%,100%);stop-opacity:1;"/>
<stop offset="1" style="stop-color:rgb(90.196078%,67.058824%,100%);stop-opacity:1;"/>
</linearGradient>
</defs>
<g id="surface826777">
<rect x="0" y="0" width="48" height="48" style="fill:rgb(10.588235%,11.764706%,26.666667%);fill-opacity:1;stroke:none;"/>
<path style=" stroke:none;fill-rule:nonzero;fill:url(#linear0);" d="M 36.75 4.5 L 11.25 4.5 C 10.007812 4.5 9 5.507812 9 6.75 L 9 41.25 C 9 42.492188 10.007812 43.5 11.25 43.5 L 36.75 43.5 C 37.992188 43.5 39 42.492188 39 41.25 L 39 6.75 C 39 5.507812 37.992188 4.5 36.75 4.5 Z M 11.25 6 L 36.75 6 C 37.164062 6 37.5 6.335938 37.5 6.75 L 37.5 7.636719 C 37.5 7.554688 37.015625 7.5 36.75 7.5 L 11.25 7.5 C 10.984375 7.5 10.5 7.554688 10.5 7.636719 L 10.5 6.75 C 10.5 6.335938 10.835938 6 11.25 6 Z M 36.75 42 L 31.5 42 L 31.5 36.75 C 31.5 36.335938 31.835938 36 32.25 36 L 37.5 36 L 37.5 41.25 C 37.5 41.664062 37.164062 42 36.75 42 Z M 37.5 34.5 L 32.25 34.5 C 31.007812 34.5 30 35.507812 30 36.75 L 30 42 L 11.25 42 C 10.835938 42 10.5 41.664062 10.5 41.25 L 10.5 9.75 C 10.5 9.335938 10.835938 9 11.25 9 L 36.75 9 C 37.164062 9 37.5 9.335938 37.5 9.75 Z M 37.5 34.5 "/>
<path style=" stroke:none;fill-rule:nonzero;fill:url(#linear1);" d="M 17.25 17.691406 L 14.78125 15.21875 L 13.71875 16.28125 L 16.191406 18.75 C 16.480469 19.042969 16.867188 19.1875 17.25 19.1875 C 17.632812 19.1875 18.015625 19.042969 18.308594 18.75 L 23.40625 13.65625 L 22.34375 12.59375 Z M 17.25 17.691406 "/>
<path style=" stroke:none;fill-rule:nonzero;fill:url(#linear2);" d="M 25.5 13.5 L 34.5 13.5 L 34.5 15 L 25.5 15 Z M 25.5 13.5 "/>
<path style=" stroke:none;fill-rule:nonzero;fill:url(#linear3);" d="M 25.5 16.5 L 34.5 16.5 L 34.5 18 L 25.5 18 Z M 25.5 16.5 "/>
<path style=" stroke:none;fill-rule:nonzero;fill:url(#linear4);" d="M 17.25 29.691406 L 14.78125 27.21875 L 13.71875 28.28125 L 16.191406 30.75 C 16.480469 31.042969 16.867188 31.1875 17.25 31.1875 C 17.632812 31.1875 18.015625 31.042969 18.308594 30.75 L 23.40625 25.65625 L 22.34375 24.59375 Z M 17.25 29.691406 "/>
<path style=" stroke:none;fill-rule:nonzero;fill:url(#linear5);" d="M 25.5 25.5 L 34.5 25.5 L 34.5 27 L 25.5 27 Z M 25.5 25.5 "/>
<path style=" stroke:none;fill-rule:nonzero;fill:url(#linear6);" d="M 25.5 28.5 L 34.5 28.5 L 34.5 30 L 25.5 30 Z M 25.5 28.5 "/>
<path style=" stroke:none;fill-rule:nonzero;fill:url(#linear7);" d="M 36 39.75 C 36 40.164062 35.664062 40.5 35.25 40.5 L 33.75 40.5 C 33.335938 40.5 33 40.164062 33 39.75 L 33 38.25 C 33 37.835938 33.335938 37.5 33.75 37.5 L 35.25 37.5 C 35.664062 37.5 36 37.835938 36 38.25 Z M 36 39.75 "/>
</g>
</svg>
