<svg xmlns="http://www.w3.org/2000/svg" viewBox="0 0 48 48" width="96px" height="96px"><path fill="#bdbdbd" d="M28,19l14.58,8.993C40.745,36.569,33.124,43,24,43C13.507,43,5,34.493,5,24 c0-0.674,0.035-1.341,0.104-1.997L15.969,19H28z"/><path fill="#9e9e9e" d="M24,5c-4.552,0-8.727,1.605-11.999,4.274L10,13v3h8l3,5h3l1-1h5l2,2v3l3.009,4.888 C36.284,30.811,37.481,31,38.125,31c1.835,0,3.37-1.527,4.455-3.007C42.859,26.697,43,25.38,43,24C43,13.507,34.493,5,24,5z"/><path fill="#757575" d="M5.104 22.003L5.104 22.003 5.104 22.003C5.317 25.364 7.645 30 11 30c.625 0 1 .363 1 1 0 2.625 2.25 4 4.25 4 3.375 0 4.061-.881 4.625-1.375C21.875 32.75 22 30.875 22 30c0-2-1-2-1-4 0-.484 0-2 2-2 .603 0 .878-1.093 1.891-2.109C25.276 21.504 25.969 21 26.5 21c1.5 0 1.5 1 1.5 2 0 4 3.77 4.451 3.947 4.913C32.125 28.375 32 30 34.375 30c1 0 1.625-.535 1.625-1 0-1-.677-1.254-1-1.375C34.649 27.493 34 27 34 26c0-.75.5-1 1.5-1 1.5 0 1 1 2.625 1C38.728 26 40 25.75 40 23.625c0-1.248-1.125-1.71-1.875-2-.814-.315-1.426-.72-2.375-2.5C35.084 17.877 32.252 16.968 32 16c-.75-2.875-2.067-4-4-4-1.17 0-2.334.787-2.688 1.859-.325.982-.318 1.874-.319 2.616-.001.651-.103 1.525-.431 1.853C24.127 18.764 23.642 19.021 23 19c-1.2-.039-2-.875-2-1.875 0-1.5 2-2.125 2-4.25 0-1.375-.921-2.118-1.806-2.58C20.647 10.109 20.077 10 19.5 10c-1.5 0-4.037-.229-7.178 2.912C11.84 13.393 11.451 14 11.302 14c-.755 0 .092-3.247.699-4.726C8.224 12.362 5.638 16.886 5.104 22.003zM39.666 15.919c-.611-1.343-1.852-2.171-2.772-1.85-.92.321-1.17 1.67-.559 3.012.611 1.342 1.852 2.171 2.772 1.849C40.027 18.61 40.277 17.261 39.666 15.919z"/><path fill="#838383" d="M10 18A1 1 0 1 0 10 20 1 1 0 1 0 10 18zM12.5 22A1.5 1.5 0 1 0 12.5 25 1.5 1.5 0 1 0 12.5 22zM17 19A2 2 0 1 0 17 23 2 2 0 1 0 17 19z"/></svg>