<svg xmlns="http://www.w3.org/2000/svg" width="128" height="128" viewBox="0 0 128 128"><path fill="#F9F6E4" d="M64,14L64,14c3.8,5.7,11.6,7.1,17.1,3l0,0l0,0c1.6,6.7,8.5,10.7,15,8.7l0,0v0c-0.8,6.8,4.3,12.9,11.2,13.3h0l0,0c-3.1,6.1-0.4,13.6,5.9,16.3l0,0l0,0c-5,4.7-5,12.7,0,17.4l0,0h0c-6.3,2.7-9,10.2-5.9,16.3l0,0h0c-6.9,0.4-12,6.5-11.2,13.3v0l0,0c-6.6-2-13.5,2-15,8.7l0,0l0,0c-5.5-4.1-13.3-2.7-17.1,3l0,0l0,0c-3.8-5.7-11.6-7.1-17.1-3l0,0l-0.3-1.2c-1.3-5.5-7.6-8.1-12.4-5.1l-12.4,7.6l5.7-11.3c2.7-5.3-0.9-11.7-6.9-12h0l0,0c3.1-6.1,0.4-13.6-5.9-16.3h0l0,0c5-4.7,5-12.7,0-17.4l0,0l0,0c6.3-2.7,9-10.2,5.9-16.3l0,0h0c6.3-0.4,10.5-6.7,8.3-12.6l-2.1-5.7l6.5,3.3c5.4,2.7,12-0.3,13.4-6.2l0.2-0.8l0,0C52.4,21.1,60.2,19.7,64,14L64,14z"/><path fill="#454B54" d="M64 117L64 117c-1 0-2-.5-2.5-1.4-1.4-2.1-3.5-3.5-5.9-3.9-2.4-.4-4.9.2-6.9 1.6-.8.6-1.9.8-2.8.4-1-.3-1.7-1.1-1.9-2.1l-.3-1.2c-.4-1.7-1.5-3-3.1-3.7s-3.3-.5-4.8.4l-12.4 7.6c-1.1.7-2.6.6-3.6-.3-1-.9-1.3-2.4-.6-3.6l5.7-11.3c.8-1.5 2.6-2.1 4-1.3 1.5.8 2.1 2.6 1.3 4l-.9 1.8 3.3-2c3.1-1.9 6.9-2.2 10.2-.8 2.5 1.1 4.6 2.9 5.7 5.3 2.5-1 5.3-1.3 8-.8 2.8.5 5.3 1.8 7.4 3.6 2.1-1.8 4.6-3.1 7.4-3.6 2.8-.5 5.6-.2 8.2.9 1.3-2.4 3.3-4.5 5.7-5.9 3.6-2 7.8-2.5 11.8-1.4 1.6.5 2.5 2.2 2 3.7-.5 1.6-2.1 2.5-3.7 2-2.4-.7-4.9-.4-7 .8-2.2 1.2-3.7 3.3-4.2 5.7-.2 1-.9 1.8-1.9 2.1-1 .3-2 .2-2.8-.4-2-1.5-4.4-2.1-6.9-1.6-2.4.4-4.5 1.8-5.9 3.9C66 116.5 65 117 64 117zM107.3 92c-1.1 0-2.2-.6-2.7-1.6-1.8-3.7-2.1-8-.7-11.8 1-2.6 2.6-4.9 4.8-6.6-1.5-2.3-2.3-5.1-2.3-7.9s.8-5.5 2.3-7.9c-2.2-1.7-3.9-4-4.8-6.6s-1.1-5.5-.6-8.2c-2.6-.9-5-2.4-6.8-4.6-1.8-2.1-2.9-4.8-3.3-7.5-2.8.1-5.5-.6-8-2-2.4-1.4-4.4-3.5-5.7-5.9-2.6 1-5.4 1.3-8.2.9-2.8-.5-5.3-1.8-7.4-3.6-2.1 1.8-4.6 3.1-7.4 3.6-2.7.5-5.5.2-8-.8-1.2 2.4-3.2 4.3-5.7 5.5-3.5 1.6-7.4 1.5-10.8-.2l-.1 0c-.1 1.1-.8 2.2-2 2.6-1.6.6-3.3-.2-3.9-1.8L24 21.7c-.4-1.2-.1-2.5.8-3.3.9-.8 2.2-1 3.4-.4l6.5 3.3c1.8.9 3.8.9 5.6.1 1.8-.8 3.1-2.4 3.5-4.3l.2-.8c.2-1 .9-1.8 1.9-2.1 1-.3 2-.2 2.8.4 2 1.5 4.4 2.1 6.9 1.6s4.5-1.8 5.9-3.9C62 11.5 63 11 64 11s2 .5 2.5 1.4c1.4 2.1 3.5 3.5 5.9 3.9 2.5.4 4.9-.2 6.9-1.6.8-.6 1.9-.8 2.8-.4 1 .3 1.7 1.1 1.9 2.1.6 2.4 2.1 4.4 4.2 5.7 2.2 1.2 4.7 1.5 7 .8 1-.3 2-.1 2.8.6.8.7 1.2 1.6 1.1 2.7-.3 2.5.4 4.9 2 6.8 1.6 1.9 3.8 3 6.3 3.2 1 .1 1.9.6 2.4 1.5.5.9.5 1.9.1 2.9-1.1 2.2-1.3 4.7-.4 7.1s2.6 4.2 4.9 5.1c.9.4 1.6 1.2 1.8 2.2s-.2 2-.9 2.7c-1.8 1.7-2.8 4-2.8 6.5s1 4.8 2.8 6.5c.7.7 1.1 1.7.9 2.7s-.8 1.8-1.8 2.2c-2.3 1-4 2.8-4.9 5.1s-.7 4.8.4 7.1c.7 1.5.2 3.3-1.3 4C108.2 91.9 107.8 92 107.3 92zM20.7 92c-.5 0-.9-.1-1.3-.3-1.5-.7-2.1-2.6-1.3-4 1.1-2.2 1.3-4.7.4-7.1-.9-2.3-2.6-4.2-4.9-5.1-.9-.4-1.6-1.2-1.8-2.2s.2-2 .9-2.7c1.8-1.7 2.8-4 2.8-6.5s-1-4.8-2.8-6.5c-.7-.7-1.1-1.7-.9-2.7s.8-1.8 1.8-2.2c2.3-1 4-2.8 4.9-5.1.9-2.3.7-4.8-.4-7.1-.7-1.5-.2-3.3 1.3-4 1.5-.7 3.3-.2 4 1.3 1.8 3.7 2.1 8 .7 11.8-1 2.6-2.6 4.9-4.8 6.6 1.5 2.3 2.3 5.1 2.3 7.9s-.8 5.5-2.3 7.9c2.2 1.7 3.9 4 4.8 6.6 1.4 3.9 1.1 8.2-.7 11.8C22.8 91.4 21.8 92 20.7 92z"/><path fill="#F8E390" d="M64 34.5A29.8 29.5 0 1 0 64 93.5A29.8 29.5 0 1 0 64 34.5Z"/><path fill="#FAA93C" d="M64,34.5c-1.7,0-3.4,0.1-5,0.4C73.1,37.3,83.8,49.4,83.8,64c0,14.6-10.7,26.7-24.8,29.1c1.6,0.3,3.3,0.4,5,0.4c16.4,0,29.8-13.2,29.8-29.5C93.8,47.7,80.4,34.5,64,34.5z"/><path fill="#454B54" d="M63.8 96.5c-6.3 0-12.5-1.8-17.9-5.3-7.3-4.8-12.3-12.1-14-20.6-.3-1.6.7-3.2 2.3-3.5 1.6-.3 3.2.7 3.5 2.3 1.4 6.9 5.5 12.9 11.4 16.8 6 3.9 13.1 5.2 20.1 3.8 7-1.4 13-5.5 17-11.4 3.9-5.9 5.3-13 3.9-19.9-1.4-6.9-5.5-12.9-11.4-16.8-6-3.9-13.1-5.2-20.1-3.8-1.6.3-3.2-.7-3.5-2.3-.3-1.6.7-3.2 2.3-3.5 8.6-1.8 17.3-.1 24.6 4.7 7.3 4.8 12.3 12.1 14 20.6 1.7 8.5 0 17.2-4.8 24.5-4.8 7.3-12.2 12.2-20.8 14C68.3 96.3 66.1 96.5 63.8 96.5zM117.5 104.2c-.9 0-1.7-.4-2.3-1.1L105 90.9c-1.1-1.3-.9-3.2.4-4.2 1.3-1.1 3.2-.9 4.2.4l10.2 12.2c1.1 1.3.9 3.2-.4 4.2C118.9 103.9 118.2 104.2 117.5 104.2zM105.1 19.1c-.8 0-1.6-.3-2.1-.9-.6-.6-.9-1.3-.9-2.1 0-.8.3-1.6.9-2.1 1.1-1.1 3.1-1.1 4.2 0 .6.6.9 1.3.9 2.1 0 .8-.3 1.6-.9 2.1C106.7 18.7 105.9 19.1 105.1 19.1z"/><path fill="#FAA93C" d="M45.1,59.1c-0.8,0-1.6-0.3-2.1-0.9s-0.9-1.3-0.9-2.1c0-0.8,0.3-1.6,0.9-2.1c1.1-1.1,3.1-1.1,4.2,0c0.6,0.6,0.9,1.3,0.9,2.1c0,0.8-0.3,1.6-0.9,2.1S45.9,59.1,45.1,59.1z"/></svg>